<mxfile host="app.diagrams.net" modified="2021-08-24T14:58:03.746Z" agent="5.0 (X11)" etag="B-G4Nm9sbeN4RVraYdKF" version="14.9.8" type="github">
  <diagram id="2gOYRXs8kX6Jgaj4g1zR" name="Page-1">
    <mxGraphModel dx="1201" dy="712" grid="1" gridSize="10" guides="1" tooltips="1" connect="1" arrows="1" fold="1" page="1" pageScale="1" pageWidth="850" pageHeight="1100" math="0" shadow="0">
      <root>
        <mxCell id="0" />
        <mxCell id="1" parent="0" />
        <mxCell id="rfJm-Gr54Hu4AGXSLJ_7-8" style="edgeStyle=orthogonalEdgeStyle;rounded=0;orthogonalLoop=1;jettySize=auto;html=1;exitX=1;exitY=0.5;exitDx=0;exitDy=0;entryX=0;entryY=0.5;entryDx=0;entryDy=0;" parent="1" source="rfJm-Gr54Hu4AGXSLJ_7-1" target="RvSAKPaxWidsK2KU3uv4-6" edge="1">
          <mxGeometry relative="1" as="geometry" />
        </mxCell>
        <mxCell id="rfJm-Gr54Hu4AGXSLJ_7-1" value="&lt;b&gt;Falsifier&lt;/b&gt;" style="rounded=0;whiteSpace=wrap;html=1;fillColor=#B9E0A5;" parent="1" vertex="1">
          <mxGeometry x="140" y="390" width="100" height="50" as="geometry" />
        </mxCell>
        <mxCell id="rfJm-Gr54Hu4AGXSLJ_7-9" style="edgeStyle=orthogonalEdgeStyle;rounded=0;orthogonalLoop=1;jettySize=auto;html=1;entryX=0;entryY=0.5;entryDx=0;entryDy=0;" parent="1" edge="1">
          <mxGeometry relative="1" as="geometry">
            <mxPoint x="670" y="410" as="targetPoint" />
            <mxPoint x="610" y="410" as="sourcePoint" />
          </mxGeometry>
        </mxCell>
        <mxCell id="RvSAKPaxWidsK2KU3uv4-10" style="edgeStyle=orthogonalEdgeStyle;rounded=0;orthogonalLoop=1;jettySize=auto;html=1;" edge="1" parent="1">
          <mxGeometry relative="1" as="geometry">
            <mxPoint x="427" y="426" as="targetPoint" />
            <mxPoint x="484" y="426" as="sourcePoint" />
            <Array as="points">
              <mxPoint x="467" y="426" />
              <mxPoint x="467" y="426" />
            </Array>
          </mxGeometry>
        </mxCell>
        <mxCell id="rfJm-Gr54Hu4AGXSLJ_7-3" value="&lt;b&gt;Controller&lt;/b&gt;" style="rounded=0;whiteSpace=wrap;html=1;fillColor=#B9E0A5;" parent="1" vertex="1">
          <mxGeometry x="487" y="387.5" width="120" height="50" as="geometry" />
        </mxCell>
        <mxCell id="RvSAKPaxWidsK2KU3uv4-2" style="edgeStyle=orthogonalEdgeStyle;rounded=0;orthogonalLoop=1;jettySize=auto;html=1;entryX=0.5;entryY=1;entryDx=0;entryDy=0;" edge="1" parent="1">
          <mxGeometry relative="1" as="geometry">
            <mxPoint x="554" y="440" as="targetPoint" />
            <mxPoint x="729" y="437.5" as="sourcePoint" />
            <Array as="points">
              <mxPoint x="729" y="470" />
              <mxPoint x="554" y="470" />
            </Array>
          </mxGeometry>
        </mxCell>
        <mxCell id="rfJm-Gr54Hu4AGXSLJ_7-4" value="&lt;b&gt;Plant&lt;/b&gt;" style="rounded=0;whiteSpace=wrap;html=1;fillColor=#B9E0A5;" parent="1" vertex="1">
          <mxGeometry x="670" y="392.5" width="110" height="45" as="geometry" />
        </mxCell>
        <mxCell id="rfJm-Gr54Hu4AGXSLJ_7-21" style="edgeStyle=orthogonalEdgeStyle;rounded=0;orthogonalLoop=1;jettySize=auto;html=1;" parent="1" source="rfJm-Gr54Hu4AGXSLJ_7-6" target="rfJm-Gr54Hu4AGXSLJ_7-1" edge="1">
          <mxGeometry relative="1" as="geometry" />
        </mxCell>
        <mxCell id="rfJm-Gr54Hu4AGXSLJ_7-6" value="&lt;b&gt;HyperSTL&lt;/b&gt;" style="shape=note;whiteSpace=wrap;html=1;backgroundOutline=1;darkOpacity=0.05;fillColor=#FFE599;strokeColor=#FFFFFF;" parent="1" vertex="1">
          <mxGeometry x="30" y="375" width="73" height="80" as="geometry" />
        </mxCell>
        <mxCell id="rfJm-Gr54Hu4AGXSLJ_7-12" value="control input" style="text;html=1;strokeColor=none;fillColor=none;align=center;verticalAlign=middle;whiteSpace=wrap;rounded=0;" parent="1" vertex="1">
          <mxGeometry x="620" y="375" width="40" height="20" as="geometry" />
        </mxCell>
        <mxCell id="rfJm-Gr54Hu4AGXSLJ_7-13" value="robustness" style="text;html=1;strokeColor=none;fillColor=none;align=center;verticalAlign=middle;whiteSpace=wrap;rounded=0;" parent="1" vertex="1">
          <mxGeometry x="260" y="387.5" width="40" height="20" as="geometry" />
        </mxCell>
        <mxCell id="rfJm-Gr54Hu4AGXSLJ_7-15" value="output" style="text;html=1;strokeColor=none;fillColor=none;align=center;verticalAlign=middle;whiteSpace=wrap;rounded=0;" parent="1" vertex="1">
          <mxGeometry x="627" y="470" width="40" height="20" as="geometry" />
        </mxCell>
        <mxCell id="rfJm-Gr54Hu4AGXSLJ_7-16" value="" style="endArrow=classic;html=1;entryX=0.5;entryY=1;entryDx=0;entryDy=0;" parent="1" edge="1">
          <mxGeometry width="50" height="50" relative="1" as="geometry">
            <mxPoint x="463" y="490" as="sourcePoint" />
            <mxPoint x="183" y="440" as="targetPoint" />
            <Array as="points">
              <mxPoint x="183" y="490" />
            </Array>
          </mxGeometry>
        </mxCell>
        <mxCell id="RvSAKPaxWidsK2KU3uv4-1" value="" style="rounded=0;whiteSpace=wrap;html=1;fillColor=none;" vertex="1" parent="1">
          <mxGeometry x="462.5" y="366" width="335" height="137.5" as="geometry" />
        </mxCell>
        <mxCell id="RvSAKPaxWidsK2KU3uv4-4" value="traces" style="text;html=1;align=center;verticalAlign=middle;resizable=0;points=[];autosize=1;strokeColor=none;" vertex="1" parent="1">
          <mxGeometry x="285" y="470" width="50" height="20" as="geometry" />
        </mxCell>
        <mxCell id="RvSAKPaxWidsK2KU3uv4-6" value="&lt;b&gt;Synthesizer&lt;/b&gt;" style="rounded=0;whiteSpace=wrap;html=1;fillColor=#B9E0A5;" vertex="1" parent="1">
          <mxGeometry x="325" y="390" width="100" height="50" as="geometry" />
        </mxCell>
        <mxCell id="RvSAKPaxWidsK2KU3uv4-16" style="edgeStyle=orthogonalEdgeStyle;rounded=0;orthogonalLoop=1;jettySize=auto;html=1;exitX=1;exitY=0.25;exitDx=0;exitDy=0;" edge="1" parent="1">
          <mxGeometry relative="1" as="geometry">
            <mxPoint x="484" y="403" as="targetPoint" />
            <mxPoint x="429" y="402.5" as="sourcePoint" />
            <Array as="points">
              <mxPoint x="454" y="403" />
              <mxPoint x="454" y="403" />
            </Array>
          </mxGeometry>
        </mxCell>
      </root>
    </mxGraphModel>
  </diagram>
</mxfile>
